<svg id="Layer_1" data-name="Layer 1" xmlns="http://www.w3.org/2000/svg" viewBox="0 0 1000 1000"><defs><style>.cls-1{fill:#231f20;}.cls-2{fill:#f7941d;}</style></defs><polygon class="cls-1" points="500 800 500 1000 0 750 0 250 500 0 500 200 200 350 200 650 500 800"/><rect class="cls-1" x="250" y="400" width="250" height="200"/><rect class="cls-1" x="300.07" y="500" width="200" height="350"/><rect class="cls-2" x="500" y="400.01" width="250" height="200"/><text/><polygon class="cls-2" points="1000 250 1000 750 800 849.88 800 150 1000 250"/><polygon class="cls-2" points="750 400 700 400 700 375 750 400"/><polygon class="cls-2" points="750 600 700 625 700 600 750 600"/><polygon class="cls-2" points="700 625 700 900 500 1000 500 724.98 500 724.96 500.07 724.96 700 625"/><polygon class="cls-2" points="700 600 700 625 500.07 724.96 500 724.96 500 600 700 600"/><rect class="cls-2" x="500" y="400" width="200" height="200"/><polygon class="cls-2" points="700 375 700 400 500 400 500 275 700 375"/><polygon class="cls-2" points="700 100 700 375 500 275 500 0 700 100"/><polygon class="cls-1" points="500 275 500 400 250 400 500 275"/><polygon class="cls-1" points="500 724.96 500 724.98 250.04 600 500 600 500 724.96"/></svg>